<svg width="16" height="15" viewBox="0 0 16 15" fill="none" xmlns="http://www.w3.org/2000/svg">
<path fill-rule="evenodd" clip-rule="evenodd" d="M0 7.5C0 7.21589 0.105345 6.94342 0.292861 6.74252C0.480376 6.54163 0.734701 6.42877 0.999888 6.42877H12.5846L8.29107 1.83102C8.10332 1.62987 7.99784 1.35706 7.99784 1.07259C7.99784 0.788121 8.10332 0.515304 8.29107 0.314154C8.47883 0.113005 8.73347 0 8.99899 0C9.26452 0 9.51916 0.113005 9.70692 0.314154L15.7062 6.74157C15.7994 6.84107 15.8732 6.95929 15.9236 7.08943C15.9741 7.21958 16 7.3591 16 7.5C16 7.64091 15.9741 7.78042 15.9236 7.91057C15.8732 8.04071 15.7994 8.15893 15.7062 8.25844L9.70692 14.6858C9.51916 14.887 9.26452 15 8.99899 15C8.73347 15 8.47883 14.887 8.29107 14.6858C8.10332 14.4847 7.99784 14.2119 7.99784 13.9274C7.99784 13.6429 8.10332 13.3701 8.29107 13.169L12.5846 8.57124H0.999888C0.734701 8.57124 0.480376 8.45837 0.292861 8.25748C0.105345 8.05658 0 7.78411 0 7.5Z" fill="white"/>
</svg>
