<svg width="28" height="26" viewBox="0 0 28 26" fill="none" xmlns="http://www.w3.org/2000/svg">
  <path fill-rule="evenodd" clip-rule="evenodd" d="M11.6315 3.42086C10.3533 3.74969 9.15237 4.32705 8.09719 5.11998C7.04175 5.91312 6.15283 6.9064 5.4812 8.04313C4.80956 9.17986 4.36836 10.4378 4.18278 11.745C3.99721 13.0523 4.07089 14.3833 4.39962 15.6621L3.91572 15.7866L1.01024 16.5337C0.758331 15.5538 0.61752 14.5511 0.588843 13.5445C0.56707 12.7802 0.609942 12.0136 0.717917 11.253C0.9681 9.49064 1.56289 7.79482 2.46834 6.26237C3.37379 4.72992 4.57216 3.39084 5.99502 2.3216C6.60898 1.86023 7.25955 1.453 7.9393 1.10347C8.83489 0.642963 9.78114 0.28263 10.7611 0.0306405L10.7628 0.0372734L11.508 2.93617L11.6325 3.42061C11.6322 3.4207 11.6319 3.42078 11.6315 3.42086Z" fill="#f7ab1f"/>
</svg>
